<?xml version="1.0" encoding="UTF-8"?> <svg xmlns="http://www.w3.org/2000/svg" width="194" height="49" viewBox="0 0 194 49" fill="none"><path d="M60.4923 39V10.8674H70.0083C72.2111 10.8674 74.0111 11.2639 75.4082 12.0569C76.818 12.8499 77.8628 13.9198 78.5425 15.2666C79.2222 16.6135 79.5621 18.1177 79.5621 19.7792C79.5621 21.4281 79.2222 22.9323 78.5425 24.2917C77.8754 25.6512 76.8369 26.7337 75.4271 27.5393C74.0299 28.3323 72.2362 28.7288 70.0461 28.7288H63.2489V25.7078H69.9328C71.4432 25.7078 72.6579 25.4498 73.5768 24.9337C74.4957 24.4176 75.1628 23.7127 75.5782 22.819C75.9936 21.9127 76.2012 20.8994 76.2012 19.7792C76.2012 18.6463 75.9936 17.6393 75.5782 16.7582C75.1628 15.8645 74.4894 15.1659 73.5579 14.6624C72.639 14.1464 71.4181 13.8883 69.895 13.8883H63.8909V39H60.4923ZM88.2292 39.4909C86.8949 39.4909 85.6802 39.2392 84.5852 38.7357C83.4901 38.2196 82.6215 37.4769 81.9796 36.5077C81.3376 35.5385 81.0166 34.3679 81.0166 32.9959C81.0166 31.7875 81.2558 30.812 81.7341 30.0693C82.2124 29.3141 82.8481 28.7225 83.6411 28.2945C84.4467 27.8539 85.3278 27.5267 86.2844 27.3127C87.2537 27.0987 88.2292 26.9288 89.211 26.8029C90.4949 26.6393 91.5333 26.5134 92.3263 26.4253C93.1319 26.3372 93.7172 26.1861 94.0823 25.9721C94.4599 25.7582 94.6487 25.3931 94.6487 24.877V24.7638C94.6487 23.4169 94.2774 22.3722 93.5347 21.6295C92.8047 20.8743 91.6907 20.4967 90.1928 20.4967C88.6571 20.4967 87.4488 20.8365 86.5677 21.5162C85.6865 22.1834 85.0698 22.9008 84.7173 23.6687L81.6208 22.5736C82.1747 21.2897 82.911 20.289 83.8299 19.5715C84.7614 18.854 85.7684 18.3505 86.8509 18.061C87.946 17.7715 89.0222 17.6267 90.0795 17.6267C90.7592 17.6267 91.5396 17.7086 92.4208 17.8722C93.3019 18.0232 94.1578 18.3505 94.9886 18.854C95.8319 19.3449 96.5242 20.0939 97.0655 21.1008C97.6193 22.0952 97.8962 23.4295 97.8962 25.1036V39H94.6487V36.1301H94.4977C94.2837 36.5832 93.9186 37.0741 93.4026 37.6028C92.8865 38.1189 92.2005 38.5657 91.3445 38.9434C90.5012 39.3084 89.4627 39.4909 88.2292 39.4909ZM88.7201 36.5832C90.004 36.5832 91.0865 36.3315 91.9676 35.828C92.8487 35.3245 93.5158 34.6763 93.969 33.8833C94.4221 33.0777 94.6487 32.2406 94.6487 31.3721V28.3889C94.5102 28.5525 94.2081 28.7036 93.7424 28.842C93.2893 28.9679 92.7606 29.0812 92.1564 29.1819C91.5648 29.2826 90.9858 29.3707 90.4194 29.4462C89.8529 29.5092 89.3998 29.5595 89.0599 29.5973C88.2166 29.7106 87.4299 29.8931 86.6998 30.1448C85.9698 30.384 85.3782 30.7427 84.925 31.221C84.4845 31.6994 84.2642 32.3539 84.2642 33.1847C84.2642 34.3049 84.6796 35.1546 85.5103 35.7336C86.3537 36.3 87.4236 36.5832 88.7201 36.5832ZM104.486 26.312V39H101.277V17.8911H104.373V21.2141H104.675C105.166 20.1316 105.915 19.2631 106.922 18.6086C107.929 17.954 109.232 17.6267 110.83 17.6267C112.253 17.6267 113.499 17.9163 114.569 18.4953C115.639 19.0743 116.47 19.9554 117.061 21.1386C117.665 22.3092 117.967 23.7945 117.967 25.5945V39H114.758V25.8211C114.758 24.1722 114.323 22.882 113.455 21.9505C112.586 21.0064 111.403 20.5344 109.905 20.5344C108.873 20.5344 107.948 20.761 107.13 21.2141C106.312 21.6673 105.663 22.3218 105.185 23.1778C104.719 24.0337 104.486 25.0784 104.486 26.312ZM129.882 39.4531C127.981 39.4531 126.314 39 124.879 38.0937C123.444 37.1874 122.323 35.9161 121.518 34.2798C120.725 32.6434 120.328 30.7427 120.328 28.5777C120.328 26.3749 120.725 24.4554 121.518 22.819C122.323 21.1701 123.444 19.8925 124.879 18.9862C126.314 18.0799 127.981 17.6267 129.882 17.6267C131.795 17.6267 133.469 18.0799 134.904 18.9862C136.339 19.8925 137.46 21.1701 138.265 22.819C139.071 24.4554 139.474 26.3749 139.474 28.5777C139.474 30.7427 139.071 32.6434 138.265 34.2798C137.46 35.9161 136.339 37.1874 134.904 38.0937C133.469 39 131.795 39.4531 129.882 39.4531ZM129.882 36.5455C131.342 36.5455 132.538 36.1741 133.469 35.4315C134.401 34.6888 135.093 33.7133 135.546 32.5049C136 31.284 136.226 29.9749 136.226 28.5777C136.226 27.1553 136 25.8337 135.546 24.6127C135.093 23.3917 134.401 22.4099 133.469 21.6673C132.538 20.912 131.342 20.5344 129.882 20.5344C128.447 20.5344 127.264 20.912 126.332 21.6673C125.401 22.4099 124.709 23.3917 124.256 24.6127C123.802 25.8337 123.576 27.1553 123.576 28.5777C123.576 29.9749 123.802 31.284 124.256 32.5049C124.709 33.7133 125.401 34.6888 126.332 35.4315C127.264 36.1741 128.447 36.5455 129.882 36.5455ZM141.834 46.8922V17.8911H144.931V21.2519H145.309C145.548 20.8869 145.881 20.4211 146.309 19.8547C146.737 19.2757 147.354 18.7596 148.16 18.3065C148.965 17.8533 150.054 17.6267 151.426 17.6267C153.201 17.6267 154.762 18.0736 156.109 18.9673C157.455 19.8484 158.506 21.1071 159.262 22.7435C160.029 24.3673 160.413 26.2868 160.413 28.5022C160.413 30.7301 160.036 32.6686 159.281 34.3175C158.525 35.9539 157.474 37.2189 156.127 38.1126C154.781 39.0063 153.226 39.4531 151.464 39.4531C150.117 39.4531 149.034 39.2266 148.216 38.7734C147.398 38.3077 146.769 37.7853 146.328 37.2063C145.888 36.6147 145.548 36.1301 145.309 35.7525H145.044V46.8922H141.834ZM151.048 36.5455C152.395 36.5455 153.522 36.1867 154.428 35.4693C155.334 34.7392 156.014 33.7637 156.467 32.5427C156.933 31.3217 157.166 29.9623 157.166 28.4644C157.166 26.9791 156.939 25.6386 156.486 24.4428C156.033 23.247 155.353 22.2966 154.447 21.5918C153.553 20.8869 152.42 20.5344 151.048 20.5344C149.727 20.5344 148.619 20.868 147.725 21.5351C146.832 22.1896 146.152 23.1148 145.686 24.3106C145.233 25.4938 145.006 26.8784 145.006 28.4644C145.006 30.0504 145.239 31.4539 145.705 32.6749C146.171 33.8833 146.851 34.8336 147.744 35.5259C148.651 36.2056 149.752 36.5455 151.048 36.5455ZM171.913 17.8911V20.6477H160.999V17.8911H171.913ZM164.171 12.8687H167.381V32.9581C167.381 34.0532 167.608 34.8588 168.061 35.3749C168.514 35.8783 169.232 36.1301 170.213 36.1301C170.427 36.1301 170.648 36.1175 170.874 36.0923C171.113 36.0672 171.371 36.0294 171.648 35.979L172.328 38.8867C172.026 39 171.655 39.0881 171.214 39.151C170.786 39.2266 170.352 39.2643 169.911 39.2643C168.212 39.2643 166.827 38.7608 165.757 37.7539C164.7 36.7469 164.171 35.4378 164.171 33.8266V12.8687ZM182.543 39.4531C180.643 39.4531 178.975 39 177.54 38.0937C176.105 37.1874 174.985 35.9161 174.179 34.2798C173.386 32.6434 172.99 30.7427 172.99 28.5777C172.99 26.3749 173.386 24.4554 174.179 22.819C174.985 21.1701 176.105 19.8925 177.54 18.9862C178.975 18.0799 180.643 17.6267 182.543 17.6267C184.457 17.6267 186.131 18.0799 187.566 18.9862C189.001 19.8925 190.121 21.1701 190.927 22.819C191.732 24.4554 192.135 26.3749 192.135 28.5777C192.135 30.7427 191.732 32.6434 190.927 34.2798C190.121 35.9161 189.001 37.1874 187.566 38.0937C186.131 39 184.457 39.4531 182.543 39.4531ZM182.543 36.5455C184.003 36.5455 185.199 36.1741 186.131 35.4315C187.062 34.6888 187.755 33.7133 188.208 32.5049C188.661 31.284 188.887 29.9749 188.887 28.5777C188.887 27.1553 188.661 25.8337 188.208 24.6127C187.755 23.3917 187.062 22.4099 186.131 21.6673C185.199 20.912 184.003 20.5344 182.543 20.5344C181.108 20.5344 179.925 20.912 178.994 21.6673C178.062 22.4099 177.37 23.3917 176.917 24.6127C176.464 25.8337 176.237 27.1553 176.237 28.5777C176.237 29.9749 176.464 31.284 176.917 32.5049C177.37 33.7133 178.062 34.6888 178.994 35.4315C179.925 36.1741 181.108 36.5455 182.543 36.5455Z" fill="#1A1A1A"></path><path d="M5.52498 38.521C7.40582 39.0189 9.42773 38.77 11.1087 37.7979L16.7983 34.4907L16.7865 13.6039C16.7865 11.2449 16.81 9.82242 16.7865 7.47532C16.7865 4.87929 17.8915 3.20787 18.6791 2.42551C15.5993 4.21546 11.2028 6.76408 8.13465 8.55404L3.37376 11.316C2.3393 12.0036 1.48117 12.94 0.893402 14.0306C0.317393 15.0975 0 16.3184 0 17.6105V31.2664C0 32.6414 0.364414 33.9335 1.01095 35.0359C1.9984 36.7666 3.62063 38.0232 5.52498 38.521ZM39.1333 27.4138L34.6898 24.8296L16.7278 35.2849L11.191 38.5092C9.40422 39.5523 7.07668 39.5642 6.05397 39.2915L21.0419 48.0161C22.1822 48.6681 23.44 49 24.7566 49C26.0732 49 27.3545 48.6562 28.5065 48.0043C32.3858 45.7876 36.2533 43.5116 40.1208 41.2593C41.261 40.5836 42.2132 39.6235 42.8715 38.4736C43.5063 37.3712 43.8707 36.091 43.8707 34.7515C43.8707 33.329 43.5768 32.0369 42.8715 30.7922C41.8841 29.0378 40.8026 28.374 39.1333 27.4138ZM40.7085 27.5205C42.1779 28.3858 43.5768 29.9743 44 31.5864V19.436V14.2914C44 12.8808 43.6238 11.565 42.9655 10.427C42.2837 9.25343 41.308 8.26954 40.1325 7.59386C36.3591 5.40087 32.5739 3.18416 28.7769 1.00302C27.1077 0.0428446 25.121 -0.241652 23.2519 0.208801C22.2645 0.445882 21.618 0.813357 20.7716 1.29937C18.3617 2.93523 17.4448 5.25862 17.4448 8.10359V13.9832L28.4595 20.3844L35.4069 24.4266C37.4288 25.6001 38.7101 26.3469 40.7085 27.5205Z" fill="#1A1A1A"></path></svg> 